<svg width="50" height="68" viewBox="0 0 50 68" fill="none" xmlns="http://www.w3.org/2000/svg">
<g clip-path="url(#clip0_241_165)">
<path d="M10.188 62.7874C15.8096 63.5775 21.0158 59.6374 21.8091 53.9927L23.2463 43.7668L13.0624 42.3356C7.44082 41.5455 2.23457 45.4855 1.44126 51.1302C0.647946 56.7749 4.5665 61.9973 10.188 62.7874Z" fill="#0ACF83"/>
<path d="M4.31577 30.6781C5.10908 25.0334 10.3153 21.0934 15.9369 21.8834L26.1208 23.3147L23.2465 43.7665L13.0626 42.3353C7.44102 41.5452 3.52246 36.3228 4.31577 30.6781Z" fill="#A259FF"/>
<path d="M7.19028 10.2269C7.98359 4.58219 13.1898 0.642181 18.8114 1.43224L28.9953 2.8635L26.121 23.3153L15.9371 21.8841C10.3155 21.094 6.39697 15.8716 7.19028 10.2269Z" fill="#F24E1E"/>
<path d="M28.9951 2.86328L39.1791 4.29454C44.8006 5.0846 48.7192 10.307 47.9258 15.9517C47.1325 21.5964 41.9263 25.5364 36.3047 24.7464L26.1208 23.3151L28.9951 2.86328Z" fill="#FF7262"/>
<path d="M45.0513 36.4029C44.258 42.0476 39.0518 45.9876 33.4302 45.1976C27.8087 44.4075 23.8901 39.1851 24.6834 33.5404C25.4768 27.8957 30.683 23.9557 36.3045 24.7457C41.9261 25.5358 45.8446 30.7582 45.0513 36.4029Z" fill="#1ABCFE"/>
</g>
<defs>
<clipPath id="clip0_241_165">
<rect width="41.1443" height="61.9585" fill="white" transform="translate(8.62305) rotate(8)"/>
</clipPath>
</defs>
</svg>
