<svg width="48" height="56" viewBox="0 0 48 56" fill="none" xmlns="http://www.w3.org/2000/svg">
<path d="M44.0997 9.21238C39.6089 1.98939 30.0167 -0.488348 22.7152 3.69163L9.8921 11.0338C8.16048 12.0119 6.64556 13.3351 5.44422 14.9187C4.24288 16.5024 3.38158 18.3117 2.91538 20.2309C2.12707 23.4631 2.43835 26.843 3.79996 29.8357C2.64514 31.3905 1.81472 33.1563 1.35906 35.0261C0.886528 36.9839 0.809433 39.008 1.1323 40.9798C1.45517 42.9515 2.1715 44.8312 3.23927 46.5085C7.73007 53.7321 17.3234 56.2093 24.6238 52.0287L37.4469 44.6865C39.1786 43.7086 40.6935 42.3855 41.895 40.802C43.0964 39.2184 43.9578 37.4092 44.4242 35.4901C45.2117 32.2577 44.9005 28.8778 43.5396 25.8847C44.6942 24.33 45.5244 22.5644 45.9799 20.6948C46.4527 18.737 46.5299 16.7128 46.2069 14.741C45.8839 12.7692 45.1679 10.8895 44.0997 9.21238Z" fill="#FF3E00"/>
<path d="M18.8036 47.8033C16.8302 48.2277 14.786 48.0414 12.9468 47.2695C11.1075 46.4976 9.56185 45.1773 8.51844 43.4868C7.87621 42.4783 7.44532 41.3481 7.25106 40.1625C7.05679 38.9768 7.10307 37.7597 7.38717 36.5824C7.48278 36.1958 7.6046 35.8169 7.75262 35.4459L8.028 34.7475L8.63259 35.2359C10.0268 36.3656 11.6094 37.2458 13.312 37.8385L13.7618 37.9956L13.6915 38.4507C13.5955 39.0978 13.732 39.7532 14.077 40.3007C14.3909 40.8105 14.8565 41.2087 15.4107 41.4414C15.9649 41.674 16.5811 41.73 17.1757 41.6016C17.448 41.5417 17.7104 41.4408 17.9538 41.3024L30.7776 33.958C31.0913 33.7806 31.3657 33.5409 31.5834 33.254C31.8011 32.9671 31.9573 32.6394 32.0421 32.2918C32.1273 31.9369 32.141 31.5701 32.0824 31.2128C32.0238 30.8554 31.8942 30.5148 31.701 30.2106C31.3867 29.7012 30.9211 29.3033 30.367 29.0704C29.8129 28.8376 29.197 28.7811 28.6024 28.9085C28.33 28.9684 28.0676 29.0693 27.8242 29.2077L22.9313 32.0103C22.126 32.4696 21.2576 32.8052 20.356 33.0056C18.3828 33.4299 16.3386 33.2435 14.4995 32.4716C12.6604 31.6997 11.1148 30.3795 10.0714 28.6891C9.4292 27.6806 8.99831 26.5504 8.80405 25.3648C8.60978 24.1791 8.65606 22.962 8.94016 21.7847C9.22139 20.6308 9.74013 19.543 10.4632 18.5911C11.1863 17.6391 12.0978 16.8439 13.1395 16.2563L25.962 8.91409C26.7672 8.45416 27.6357 8.11794 28.5374 7.91704C30.5106 7.49276 32.5548 7.67914 34.3939 8.45102C36.233 9.22291 37.7786 10.5431 38.822 12.2335C39.4642 13.242 39.8951 14.3722 40.0893 15.5579C40.2836 16.7435 40.2373 17.9606 39.9532 19.1379C39.8571 19.5247 39.7346 19.905 39.5865 20.2761L39.3099 20.9756L38.7058 20.4884C37.3118 19.3588 35.7294 18.4786 34.0269 17.8858L33.5761 17.7287L33.6469 17.2736C33.7419 16.6265 33.6054 15.9715 33.2614 15.4236C32.9477 14.9143 32.4825 14.5164 31.9287 14.2837C31.3749 14.0511 30.7593 13.9949 30.1651 14.1228C29.8927 14.1827 29.6303 14.2836 29.3869 14.422L16.5633 21.763C16.2497 21.9404 15.9754 22.1801 15.7578 22.467C15.5402 22.7539 15.3841 23.0815 15.2994 23.4291C15.2141 23.784 15.2002 24.1507 15.2586 24.508C15.3169 24.8653 15.4464 25.2061 15.6394 25.5103C15.9537 26.0197 16.4193 26.4176 16.9734 26.6505C17.5274 26.8833 18.1433 26.9398 18.738 26.8124C19.0104 26.7525 19.2728 26.6516 19.5161 26.5132L24.4084 23.7117C25.2133 23.2512 26.0819 22.9151 26.9838 22.7153C28.9565 22.2908 31.0001 22.4769 32.8388 23.2483C34.6776 24.0198 36.2229 25.3395 37.2662 27.0293C37.9084 28.0378 38.3393 29.1681 38.5336 30.3537C38.7278 31.5393 38.6816 32.7565 38.3975 33.9337C38.117 35.088 37.5989 36.1761 36.8764 37.1286C36.1539 38.081 35.2428 38.8769 34.2014 39.4652L21.3784 46.8057C20.5738 47.2664 19.7054 47.6026 18.8036 47.8027" fill="white"/>
</svg>
